<?xml version="1.0" encoding="UTF-8" standalone="no"?>
<svg width="130px" height="130px" viewBox="0 0 130 130" version="1.1" xmlns="http://www.w3.org/2000/svg" xmlns:xlink="http://www.w3.org/1999/xlink" xmlns:sketch="http://www.bohemiancoding.com/sketch/ns">
    <!-- Generator: Sketch 3.4.2 (15855) - http://www.bohemiancoding.com/sketch -->
    <title>sass-logo-seal</title>
    <desc>Created with Sketch.</desc>
    <defs>
        <path id="path-1" d="M0.0189781022,0.0408029197 L129.959197,0.0408029197 L129.959197,130 L0.0189781022,130"></path>
    </defs>
    <g id="Page-1" stroke="none" stroke-width="1" fill="none" fill-rule="evenodd" sketch:type="MSPage">
        <g id="sass-logo-seal" sketch:type="MSLayerGroup">
            <g id="Group-3">
                <mask id="mask-2" sketch:name="Clip 2" fill="white">
                    <use xlink:href="#path-1"></use>
                </mask>
                <g id="Clip-2"></g>
                <path d="M64.9797567,0.0408029197 C100.867032,0.0408029197 129.959197,29.1332847 129.959197,65.0205596 C129.959197,100.907835 100.867032,130 64.9797567,130 C29.0924818,130 0,100.907835 0,65.0205596 C0,29.1332847 29.0924818,0.0408029197 64.9797567,0.0408029197" id="Fill-1" fill="#BE5F8A" sketch:type="MSShapeGroup" mask="url(#mask-2)"></path>
            </g>
            <path d="M52.0661071,86.6654015 C53.0115328,90.1624331 52.9077859,93.4235036 51.9313625,96.3768127 C51.822871,96.7048175 51.703309,97.0293431 51.5736253,97.350073 C51.4439416,97.6701703 51.3035036,97.9867883 51.152944,98.2992944 C50.3998297,99.8618248 49.3892457,101.324404 48.1515572,102.67438 C44.37618,106.79326 39.1012165,108.35073 36.8393431,107.038394 C34.3968613,105.622628 35.6203163,99.8153285 39.9976156,95.1884672 C44.7067153,90.2101946 51.4822141,87.0095377 51.4822141,87.0095377 L51.4717762,86.9892944 C51.6669343,86.8842822 51.8652555,86.7761071 52.0661071,86.6654015 L52.0661071,86.6654015 Z M105.739343,27.8528954 C102.796788,16.3123114 83.6611679,12.5185888 65.550365,18.9524818 C54.7723844,22.7819465 43.1043309,28.7916788 34.7147445,36.6388078 C24.7395377,45.9690754 23.1488564,54.0898054 23.8045499,57.48309 C26.1173479,69.4563747 42.5229684,77.2826277 49.2671533,83.0892944 L49.2671533,83.1244039 C47.2785645,84.1033577 32.723309,91.4693917 29.317056,98.9999027 C25.7229197,106.944453 29.8892457,112.645474 32.6473966,113.412822 C41.1935523,115.790462 49.9633333,111.513747 54.6762287,104.483942 C59.2243309,97.6999027 58.8457178,88.9396107 56.8691484,84.5819221 C59.5956691,83.8626521 62.7741849,83.5403406 66.813674,84.0122628 C78.2122384,85.3435766 80.4488078,92.4609976 80.0211679,95.4389781 C79.5938443,98.4179075 77.2029197,100.055718 76.4036253,100.550097 C75.6040146,101.044793 75.360146,101.215912 75.4275182,101.583455 C75.5243066,102.118005 75.8943796,102.098078 76.5760097,101.982628 C77.5141606,101.824477 82.5613869,99.5597567 82.7771046,94.0614842 C83.0519708,87.0807056 76.3621898,79.2718491 64.5170073,79.4758637 C59.6386861,79.56 56.5711922,80.0240146 54.3554988,80.8486131 C54.1916545,80.6619951 54.0249635,80.476326 53.8525791,80.2925547 C46.529562,72.4795864 32.9921655,66.9528467 33.566253,56.4494161 C33.7750122,52.6310219 35.1022141,42.5761071 59.5785888,30.3798297 C79.6289538,20.3888078 95.68,23.1381022 98.4539659,29.2313382 C102.416277,37.9362774 89.8755474,54.1157421 69.05309,56.4494161 C61.119927,57.3388564 56.9428467,54.2640876 55.9037956,53.1190754 C54.809708,51.9136496 54.6468127,51.8592457 54.2384672,52.0854015 C53.5729684,52.4538929 53.9945985,53.5182482 54.2384672,54.1527494 C54.86,55.7706326 57.4112895,58.6398054 61.7607543,60.0669586 C65.5867397,61.3226764 74.9011922,62.0125304 86.1656448,57.6554745 C98.7813382,52.7752555 108.632871,39.200219 105.739343,27.8528954 L105.739343,27.8528954 Z" id="Fill-4" fill="#FFFFFF" sketch:type="MSShapeGroup"></path>
        </g>
    </g>
</svg>